<svg width="98" height="36" viewBox="0 0 98 36" fill="none" xmlns="http://www.w3.org/2000/svg">
    <g filter="url(#filter0_d_621_272)">
        <path d="M4.29292 0.468674C4.9764 0.566314 5.57201 0.644426 6.07974 0.703011C6.58747 0.761595 7.00732 0.810415 7.3393 0.849471C7.72986 0.888527 8.06184 0.917819 8.33523 0.937347C8.64768 0.976404 9.02848 0.956876 9.47762 0.878763C9.9463 0.800651 10.4443 0.722539 10.9715 0.644426C11.4988 0.546786 12.0456 0.468674 12.6119 0.41009C13.1782 0.351505 13.725 0.351505 14.2522 0.41009C14.6037 0.449146 15.0529 0.527258 15.5997 0.644426C16.1465 0.761595 16.7225 0.947111 17.3279 1.20098C17.9528 1.45484 18.5777 1.78682 19.2026 2.19691C19.8275 2.607 20.3938 3.12449 20.9015 3.74939C21.4093 4.37429 21.8291 5.11635 22.1611 5.97559C22.4931 6.83483 22.6786 7.84052 22.7177 8.99268C22.7762 10.7111 22.62 12.2734 22.249 13.6794C21.878 15.0854 21.3019 16.2864 20.5208 17.2823C19.7592 18.2783 18.7925 19.0594 17.6208 19.6257C16.4491 20.192 15.0822 20.5045 13.5199 20.5631C12.3287 20.6607 11.157 20.7486 10.0049 20.8267C9.51668 20.8657 8.99919 20.895 8.4524 20.9146C7.92514 20.9341 7.39788 20.9536 6.87063 20.9732C6.34337 20.9732 5.83564 20.9634 5.34744 20.9439C4.85924 20.9243 4.41009 20.895 4 20.856C4.44915 20.6412 4.81041 20.4264 5.08381 20.2116C5.37673 19.9967 5.6013 19.8112 5.75753 19.655C5.93328 19.4597 6.06021 19.284 6.13832 19.1277C6.17738 18.9129 6.23596 18.4931 6.31408 17.8682C6.37266 17.3409 6.45077 16.5891 6.54841 15.6127C6.64605 14.6363 6.76322 13.3084 6.89992 11.629L7.07567 9.54923C7.17331 8.26038 7.21237 7.20586 7.19284 6.38568C7.19284 5.5655 7.17331 4.92107 7.13426 4.4524C7.07567 3.90561 6.99756 3.50529 6.89992 3.25142C6.82181 3.03662 6.67535 2.78275 6.46054 2.48983C6.26526 2.25549 5.99186 1.97234 5.64036 1.64036C5.30838 1.28885 4.85924 0.898291 4.29292 0.468674ZM10.4736 11.2482C10.5126 12.9862 10.6005 14.3238 10.7372 15.2612C10.8934 16.179 11.0594 16.8625 11.2352 17.3116C11.45 17.8194 11.6843 18.1221 11.9382 18.2197C12.3092 18.2197 12.729 18.0635 13.1977 17.751C13.6664 17.419 14.1253 16.9211 14.5745 16.2571C15.0431 15.5932 15.463 14.7632 15.834 13.7673C16.2246 12.7714 16.5077 11.6094 16.6835 10.2815C16.8592 8.95362 16.8104 7.78194 16.537 6.76648C16.2636 5.75102 15.9024 4.90155 15.4532 4.21806C15.0041 3.51505 14.5452 2.9878 14.0765 2.63629C13.6078 2.26526 13.2563 2.07974 13.022 2.07974C12.7486 2.07974 12.5045 2.15785 12.2897 2.31408C12.0749 2.45077 11.7722 2.77299 11.3816 3.28072C11.1863 3.55411 11.0106 3.94467 10.8544 4.4524C10.7177 4.90155 10.6005 5.49715 10.5028 6.23922C10.4052 6.98129 10.3759 7.93816 10.415 9.10985L10.4736 11.2482Z"
              fill="#1E40F2" />
        <path d="M31.9154 8.23108C32.4231 8.23108 32.9504 8.32872 33.4972 8.524C34.0439 8.69976 34.5712 8.93409 35.0789 9.22701C35.5867 9.50041 36.0456 9.80309 36.4557 10.1351C36.8853 10.4475 37.2368 10.7502 37.5102 11.0431C37.9984 11.5704 38.3304 12.2832 38.5061 13.1814C38.7014 14.0602 38.7404 14.9683 38.6233 15.9056C38.5061 16.8234 38.2327 17.6924 37.8031 18.5126C37.3735 19.3328 36.7779 19.9382 36.0163 20.3287C35.4695 20.6021 34.9325 20.8169 34.4052 20.9732C33.878 21.1294 33.3702 21.2465 32.882 21.3247C32.3938 21.4028 31.9349 21.4418 31.5053 21.4418C31.0757 21.4418 30.7046 21.4321 30.3922 21.4125C29.8063 21.3735 29.1912 21.1684 28.5468 20.7974C27.9219 20.4264 27.3263 19.9675 26.76 19.4207C26.2132 18.8739 25.7445 18.2783 25.3539 17.6339C24.9634 16.9699 24.729 16.345 24.6509 15.7592C24.5338 14.9585 24.5142 14.1188 24.5924 13.24C24.6705 12.3613 24.9536 11.5509 25.4418 10.8088C25.9496 10.0667 26.7111 9.45159 27.7266 8.96339C28.7616 8.47518 30.1579 8.23108 31.9154 8.23108ZM30.9487 19.5964C31.1635 19.6355 31.4565 19.5867 31.8275 19.45C32.1985 19.2937 32.5598 19.0496 32.9113 18.7177C33.2823 18.3857 33.6046 17.9658 33.878 17.4581C34.1709 16.9308 34.3466 16.2962 34.4052 15.5541C34.4638 14.8316 34.4638 14.1676 34.4052 13.5622C34.3662 12.9569 34.2783 12.4296 34.1416 11.9805C34.0049 11.5118 33.8487 11.131 33.6729 10.8381C33.4972 10.5452 33.3116 10.3401 33.1164 10.2229C32.7844 10.0472 32.3841 9.9105 31.9154 9.81286C31.4467 9.69569 31.0464 9.71522 30.7144 9.87144C30.5582 9.94955 30.3629 10.1155 30.1286 10.3694C29.8942 10.6233 29.6599 10.9455 29.4256 11.336C29.1912 11.7071 28.9764 12.1367 28.7811 12.6249C28.6054 13.1131 28.4784 13.6208 28.4003 14.1481C28.3222 14.6753 28.3027 15.2417 28.3417 15.847C28.4003 16.4524 28.5273 17.0285 28.7225 17.5753C28.9178 18.1025 29.1912 18.5614 29.5427 18.952C29.9138 19.323 30.3824 19.5378 30.9487 19.5964Z"
              fill="#1E40F2" />
        <path d="M56.4036 10.9552C56.1692 10.9162 55.8763 10.8869 55.5248 10.8674C55.1928 10.8478 54.8706 10.8381 54.5582 10.8381C54.2067 10.8381 53.8356 10.8478 53.4451 10.8674C53.035 10.8869 52.6249 10.9064 52.2148 10.926C51.8633 10.9455 51.463 10.9748 51.0138 11.0138C50.5842 11.0334 50.1644 11.0627 49.7543 11.1017C49.9105 11.0236 50.0472 10.9162 50.1644 10.7795C50.3011 10.6428 50.4182 10.5061 50.5159 10.3694C50.6135 10.2132 50.7014 10.0472 50.7795 9.87144C50.8771 9.57852 50.8674 9.22701 50.7502 8.81693C50.633 8.38731 50.4182 7.99675 50.1058 7.64524C49.8129 7.29374 49.4321 7.02034 48.9634 6.82506C48.5142 6.61025 48.0163 6.56143 47.4695 6.6786C46.8836 6.8153 46.3564 7.02034 45.8877 7.29374C45.4386 7.56713 45.0578 7.94793 44.7453 8.43613C44.4524 8.9048 44.2376 9.49064 44.1009 10.1937C43.9837 10.8771 43.9544 11.6973 44.013 12.6542C44.0911 13.8454 44.2864 14.7925 44.5989 15.4955C44.9113 16.1985 45.2921 16.7258 45.7413 17.0773C46.1904 17.4288 46.6786 17.6436 47.2059 17.7217C47.7526 17.7803 48.2897 17.7803 48.8169 17.7217C49.188 17.6436 49.5297 17.4776 49.8422 17.2238C50.096 17.009 50.3304 16.6965 50.5452 16.2864C50.76 15.8763 50.8576 15.31 50.8381 14.5875L54.4117 14.441C54.0016 15.5932 53.5037 16.511 52.9178 17.1945C52.332 17.8584 51.7657 18.3759 51.2189 18.747C50.5745 19.1766 49.93 19.4695 49.2856 19.6257C48.4849 19.7624 47.7722 19.821 47.1473 19.8015C46.5224 19.7624 45.9561 19.6648 45.4483 19.5085C44.9406 19.3523 44.4719 19.157 44.0423 18.9227C43.6127 18.6884 43.2026 18.4345 42.812 18.1611C42.5582 17.9854 42.275 17.6924 41.9626 17.2823C41.6501 16.8723 41.3572 16.3841 41.0838 15.8177C40.8104 15.2319 40.5858 14.5875 40.4101 13.8845C40.2343 13.1814 40.166 12.4589 40.205 11.7168C40.2441 10.9552 40.4199 10.1937 40.7323 9.43206C41.0448 8.67046 41.5427 7.93816 42.2262 7.23515C43.2612 6.18063 44.3645 5.49715 45.5362 5.1847C46.7274 4.85273 47.8503 4.76485 48.9048 4.92107C49.9593 5.05777 50.8967 5.36046 51.7168 5.82913C52.537 6.2978 53.1131 6.80553 53.4451 7.35232C53.7771 7.89911 54.0212 8.31896 54.1774 8.61188C54.3531 8.88527 54.4801 9.10008 54.5582 9.25631C54.6558 9.393 54.7339 9.50041 54.7925 9.57852C54.8706 9.6371 54.978 9.72498 55.1147 9.84215C55.2124 9.93979 55.3295 10.0472 55.4662 10.1644C55.5834 10.262 55.7201 10.3792 55.8763 10.5159C56.0325 10.6526 56.2083 10.799 56.4036 10.9552Z"
              fill="#1E40F2" />
        <path d="M55.9642 8.26038L61.3539 8.31896C61.0415 9.51017 60.8072 10.5256 60.6509 11.3653C60.5142 12.205 60.4264 12.9081 60.3873 13.4744C60.3092 14.1188 60.2897 14.6656 60.3287 15.1147C60.3873 15.5248 60.485 15.9642 60.6216 16.4329C60.7388 16.8234 60.9146 17.2726 61.1489 17.7803C61.3832 18.288 61.6957 18.7958 62.0863 19.3035C61.8519 19.2254 61.598 19.1668 61.3247 19.1277C61.0513 19.0887 60.7974 19.0594 60.5631 19.0399C60.2897 19.0203 60.0163 19.0203 59.7429 19.0399C59.4695 19.0594 59.1668 19.0887 58.8348 19.1277C58.5614 19.1668 58.2295 19.2156 57.8389 19.2742C57.4483 19.3328 57.0382 19.4109 56.6086 19.5085C56.9015 18.6298 57.1261 17.8682 57.2823 17.2238C57.4581 16.5793 57.585 16.0423 57.6631 15.6127C57.7413 15.105 57.7901 14.6949 57.8096 14.3824C57.8096 13.9919 57.8096 13.5525 57.8096 13.0643C57.8096 12.5566 57.8096 12.0683 57.8096 11.5997C57.8096 11.131 57.7998 10.7209 57.7803 10.3694C57.7608 9.99837 57.7217 9.76404 57.6631 9.6664L57.3702 9.37348C57.2531 9.27583 57.0773 9.13914 56.843 8.96339C56.6282 8.7681 56.3352 8.53377 55.9642 8.26038ZM58.0439 3.74939C58.454 3.53458 58.8641 3.476 59.2742 3.57364C59.7038 3.67128 60.0358 3.85679 60.2701 4.13019C60.5045 4.40358 60.5826 4.72579 60.5045 5.09683C60.4459 5.46786 60.1334 5.82913 59.5671 6.18063C59.0008 6.51261 58.5028 6.62978 58.0732 6.53214C57.6436 6.4345 57.3409 6.22945 57.1652 5.91701C56.9894 5.60456 56.9601 5.24329 57.0773 4.8332C57.1945 4.40358 57.5167 4.04231 58.0439 3.74939Z"
              fill="#1E40F2" />
        <path d="M63.2872 1.14239C64.4589 1.24003 65.4841 1.29862 66.3629 1.31814C67.2612 1.33767 68.0228 1.34744 68.6477 1.34744C69.3702 1.34744 69.9951 1.32791 70.5224 1.28885C71.0692 1.23027 71.7819 1.15216 72.6607 1.05452C73.4028 0.956876 74.3596 0.829943 75.5313 0.673719C76.703 0.497966 78.1286 0.273393 79.808 0C79.5932 0.331977 79.4077 0.683483 79.2514 1.05452C79.1147 1.40602 78.9976 1.72823 78.8999 2.02116C78.8023 2.37266 78.7144 2.7144 78.6363 3.04638C78.5777 3.41741 78.5094 3.87632 78.4312 4.42311C78.3531 4.89178 78.2555 5.48739 78.1383 6.20993C78.0407 6.91294 77.9138 7.75264 77.7575 8.72905C77.1717 7.20586 76.5761 6.03417 75.9707 5.214C75.3849 4.39382 74.8381 3.78845 74.3304 3.39788C73.7445 2.94874 73.188 2.69487 72.6607 2.63629C71.8991 2.63629 71.2742 2.78275 70.786 3.07567C70.2978 3.36859 69.8975 3.74939 69.585 4.21806C69.2921 4.66721 69.0675 5.16517 68.9113 5.71196C68.7551 6.23922 68.6477 6.75671 68.5891 7.26444C68.5305 7.75264 68.4915 8.19203 68.4719 8.58259C68.4524 8.95362 68.4329 9.20749 68.4133 9.34418C69.0968 9.30513 69.6729 9.25631 70.1416 9.19772C70.6103 9.13914 70.9813 9.08055 71.2547 9.02197C71.5867 8.94386 71.8503 8.86574 72.0456 8.78763C72.3385 8.63141 72.6314 8.44589 72.9243 8.23108C73.1782 8.0358 73.4418 7.80147 73.7152 7.52807C74.0081 7.25468 74.262 6.9227 74.4768 6.53214C74.3596 7.23515 74.2522 7.82099 74.1546 8.28967C74.0765 8.75834 74.0081 9.12937 73.9496 9.40277C73.8714 9.73474 73.8226 9.98861 73.8031 10.1644C73.764 10.3401 73.7152 10.5842 73.6566 10.8967C73.5981 11.1701 73.5297 11.5216 73.4516 11.9512C73.3735 12.3808 73.2856 12.9178 73.188 13.5622C72.9536 13.1522 72.7095 12.8202 72.4557 12.5663C72.2018 12.2929 71.9675 12.0781 71.7526 11.9219C71.4988 11.7461 71.2547 11.6094 71.0203 11.5118C70.7665 11.4337 70.4931 11.3556 70.2002 11.2775C69.9463 11.2189 69.6436 11.1603 69.2921 11.1017C68.9601 11.0236 68.5989 10.9552 68.2083 10.8967C68.2474 11.9512 68.3059 12.8592 68.3841 13.6208C68.4622 14.3629 68.5305 14.9878 68.5891 15.4955C68.6672 16.0814 68.7453 16.5696 68.8234 16.9601C68.9211 17.3507 69.0773 17.7705 69.2921 18.2197C69.4679 18.6103 69.712 19.0594 70.0244 19.5671C70.3564 20.0553 70.7762 20.5826 71.284 21.1489C70.8934 21.0513 70.4833 20.9829 70.0537 20.9439C69.6241 20.9048 69.2433 20.8755 68.9113 20.856C68.5012 20.8365 68.1107 20.8365 67.7396 20.856C67.3491 20.8755 66.9194 20.9146 66.4508 20.9732C66.0602 21.0122 65.6111 21.0708 65.1033 21.1489C64.5956 21.227 64.0586 21.3149 63.4923 21.4125C63.8242 21.0806 64.0976 20.7486 64.3125 20.4166C64.5273 20.0846 64.6835 19.7917 64.7811 19.5378C64.8983 19.2449 64.9764 18.9618 65.0155 18.6884C65.035 18.454 65.0448 17.9463 65.0448 17.1652C65.0448 16.3645 65.035 15.4369 65.0155 14.3824C64.9959 13.3084 64.9666 12.1758 64.9276 10.9845C64.8885 9.79333 64.8495 8.68023 64.8104 7.64524C64.7714 6.59072 64.7225 5.69243 64.664 4.95037C64.6249 4.2083 64.5761 3.75915 64.5175 3.60293C64.4394 3.40765 64.3515 3.18308 64.2539 2.92921C64.0976 2.51912 63.7754 1.92352 63.2872 1.14239Z"
              fill="#1E40F2" />
        <path d="M77.1131 6.38568C77.5037 6.44426 77.8552 6.49308 78.1676 6.53214C78.4605 6.55167 78.7242 6.5712 78.9585 6.59072C79.2124 6.61025 79.4565 6.62002 79.6908 6.62002C79.9056 6.62002 80.179 6.61025 80.511 6.59072C80.7844 6.5712 81.1359 6.55167 81.5655 6.53214C82.0146 6.49308 82.5419 6.44426 83.1473 6.38568C83.1082 6.46379 83.0301 6.70789 82.9129 7.11798C82.7958 7.50854 82.6786 7.99675 82.5614 8.58259C82.4443 9.1489 82.3369 9.78356 82.2392 10.4866C82.1611 11.1701 82.1221 11.8535 82.1221 12.537C82.1416 13.201 82.2295 13.8356 82.3857 14.441C82.5419 15.0269 82.7958 15.5053 83.1473 15.8763C83.8893 16.6379 84.5435 17.0968 85.1098 17.2531C85.6957 17.4093 86.2034 17.3897 86.633 17.1945C87.0627 16.9992 87.4142 16.7063 87.6876 16.3157C87.9609 15.9251 88.1562 15.5639 88.2734 15.2319C88.5663 14.3336 88.7421 13.3865 88.8007 12.3906C88.8397 11.5313 88.7714 10.5745 88.5956 9.51994C88.4199 8.46542 88 7.39138 87.3361 6.2978C87.8438 6.33686 88.2832 6.36615 88.6542 6.38568C89.0252 6.40521 89.3474 6.42474 89.6208 6.44426C89.9333 6.46379 90.2067 6.48332 90.441 6.50285C90.6558 6.52238 90.9097 6.52238 91.2026 6.50285C91.4565 6.50285 91.7592 6.49308 92.1107 6.47356C92.4817 6.4345 92.8918 6.39544 93.3409 6.35639C93.419 8.27014 93.4874 9.97884 93.546 11.4825C93.6046 12.9666 93.6436 14.2848 93.6631 15.4369C93.7022 16.5696 93.7217 17.5557 93.7217 18.3954C93.7217 19.2156 93.7217 19.9089 93.7217 20.4752C93.7022 21.8226 93.6436 22.7111 93.546 23.1408C93.3897 23.7461 93.1066 24.3515 92.6965 24.9569C92.3059 25.5622 91.808 26.0993 91.2026 26.5679C90.5972 27.0561 89.8942 27.4272 89.0936 27.681C88.3125 27.9544 87.4532 28.0521 86.5159 27.974C85.5981 27.8959 84.8657 27.7689 84.319 27.5932C83.7917 27.4369 83.3718 27.2514 83.0594 27.0366C82.7665 26.8218 82.5517 26.5972 82.415 26.3629C82.2978 26.1286 82.2099 25.8845 82.1513 25.6306C82.0928 25.3963 82.0342 25.1717 81.9756 24.9569C81.917 24.7421 81.7998 24.5566 81.6241 24.4003C81.4093 24.2246 81.1847 24.0488 80.9504 23.8731C80.7356 23.7168 80.5012 23.5606 80.2474 23.4044C80.013 23.2482 79.7787 23.1212 79.5443 23.0236L85.7836 22.6721C85.6078 22.9064 85.4809 23.1212 85.4028 23.3165C85.3247 23.5118 85.2758 23.6778 85.2563 23.8145C85.2368 23.9902 85.2465 24.1367 85.2856 24.2539C85.3637 24.4882 85.5004 24.7421 85.6957 25.0155C85.9105 25.3084 86.1839 25.533 86.5159 25.6892C86.8478 25.8649 87.2384 25.9235 87.6876 25.8649C88.1562 25.8063 88.6835 25.5622 89.2693 25.1326C89.7575 24.7616 90.1676 24.166 90.4996 23.3458C90.773 22.6428 90.9878 21.6566 91.144 20.3873C91.3002 19.118 91.271 17.4483 91.0561 15.3784C90.7046 16.5891 90.2262 17.5167 89.6208 18.1611C89.0155 18.8055 88.4101 19.2742 87.8047 19.5671C87.1017 19.9186 86.3694 20.1042 85.6078 20.1237C84.5924 20.0846 83.7234 19.9577 83.0008 19.7429C82.2783 19.5085 81.6827 19.1961 81.214 18.8055C80.7453 18.415 80.3743 17.9561 80.1009 17.4288C79.847 16.882 79.6615 16.2766 79.5443 15.6127C79.4272 14.9487 79.3686 14.2848 79.3686 13.6208C79.3686 12.9373 79.3686 12.3027 79.3686 11.7168C79.3881 11.131 79.3979 10.6037 79.3979 10.1351C79.3979 9.64687 79.3491 9.25631 79.2514 8.96339C79.1343 8.67046 78.978 8.37754 78.7828 8.08462C78.6265 7.83076 78.4117 7.55736 78.1383 7.26444C77.8454 6.95199 77.5037 6.65907 77.1131 6.38568Z"
              fill="#1E40F2" />
    </g>
    <defs>
        <filter id="filter0_d_621_272" x="0" y="0" width="97.7217" height="36" filterUnits="userSpaceOnUse"
                color-interpolation-filters="sRGB">
            <feFlood flood-opacity="0" result="BackgroundImageFix" />
            <feColorMatrix in="SourceAlpha" type="matrix" values="0 0 0 0 0 0 0 0 0 0 0 0 0 0 0 0 0 0 127 0"
                           result="hardAlpha" />
            <feOffset dy="4" />
            <feGaussianBlur stdDeviation="2" />
            <feComposite in2="hardAlpha" operator="out" />
            <feColorMatrix type="matrix" values="0 0 0 0 0 0 0 0 0 0 0 0 0 0 0 0 0 0 0.25 0" />
            <feBlend mode="normal" in2="BackgroundImageFix" result="effect1_dropShadow_621_272" />
            <feBlend mode="normal" in="SourceGraphic" in2="effect1_dropShadow_621_272" result="shape" />
        </filter>
    </defs>
</svg>