<svg width="200" height="68" viewBox="0 0 200 68" fill="none" xmlns="http://www.w3.org/2000/svg">
<g filter="url(#filter0_d_137_4461)">
<path d="M4.62684 1.0043C6.08945 1.21353 7.36402 1.38091 8.45054 1.50645C9.53706 1.63199 10.4355 1.7366 11.1459 1.8203C11.9817 1.90399 12.6921 1.96676 13.2772 2.0086C13.9458 2.09229 14.7607 2.05045 15.7218 1.88306C16.7248 1.71568 17.7904 1.5483 18.9187 1.38091C20.047 1.17168 21.2171 1.0043 22.429 0.878763C23.6409 0.753226 24.811 0.753226 25.9393 0.878763C26.6915 0.962455 27.6526 1.12984 28.8227 1.38091C29.9928 1.63199 31.2256 2.02952 32.5211 2.57352C33.8583 3.11752 35.1956 3.8289 36.5328 4.70766C37.8701 5.58642 39.0819 6.69534 40.1685 8.03441C41.255 9.37348 42.1534 10.9636 42.8639 12.8048C43.5743 14.6461 43.9713 16.8011 44.0548 19.27C44.1802 22.9525 43.8459 26.3001 43.0519 29.313C42.2579 32.3259 41.0251 34.8995 39.3536 37.0336C37.7238 39.1677 35.6552 40.8416 33.1479 42.0551C30.6405 43.2686 27.7153 43.9382 24.3722 44.0637C21.823 44.2729 19.3157 44.4612 16.8501 44.6286C15.8054 44.7123 14.698 44.7751 13.5279 44.8169C12.3996 44.8588 11.2713 44.9006 10.143 44.9425C9.01469 44.9425 7.92817 44.9215 6.88345 44.8797C5.83872 44.8378 4.87757 44.7751 4 44.6914C4.96115 44.2311 5.73425 43.7708 6.31929 43.3105C6.94613 42.8502 7.42671 42.4526 7.76102 42.1179C8.13712 41.6994 8.40875 41.3228 8.57591 40.988C8.65948 40.5277 8.78485 39.628 8.95201 38.289C9.07737 37.1591 9.24453 35.5481 9.45348 33.4558C9.66242 31.3635 9.91316 28.518 10.2057 24.9192L10.5818 20.4626C10.7907 17.7008 10.8743 15.4411 10.8325 13.6836C10.8325 11.9261 10.7907 10.5452 10.7071 9.54086C10.5818 8.36917 10.4146 7.51133 10.2057 6.96734C10.0385 6.50703 9.72511 5.96304 9.26543 5.33535C8.84754 4.8332 8.26249 4.22643 7.51028 3.51505C6.79987 2.76183 5.83872 1.92491 4.62684 1.0043ZM17.8531 24.1032C17.9367 27.8275 18.1247 30.6939 18.4172 32.7025C18.7516 34.6693 19.1068 36.1339 19.4829 37.0964C19.9425 38.1844 20.444 38.833 20.9873 39.0422C21.7813 39.0422 22.6797 38.7074 23.6827 38.0379C24.6856 37.3265 25.6676 36.2594 26.6288 34.8367C27.6317 33.4139 28.5302 31.6355 29.3242 29.5013C30.16 27.3672 30.7659 24.8774 31.142 22.0319C31.5181 19.1863 31.4136 16.6756 30.8286 14.4996C30.2436 12.3236 29.4705 10.5033 28.5093 9.03871C27.5482 7.53226 26.5661 6.40242 25.5632 5.64919C24.5602 4.85412 23.808 4.45658 23.3066 4.45658C22.7215 4.45658 22.1992 4.62397 21.7395 4.95874C21.2798 5.25166 20.6321 5.94211 19.7963 7.03011C19.3784 7.61595 19.0023 8.45287 18.668 9.54086C18.3754 10.5033 18.1247 11.7796 17.9158 13.3698C17.7068 14.9599 17.6441 17.0103 17.7277 19.5211L17.8531 24.1032Z" fill="#6358DC"/>
<path d="M63.7375 17.638C64.824 17.638 65.9523 17.8473 67.1224 18.2657C68.2925 18.6423 69.4208 19.1445 70.5073 19.7722C71.5939 20.358 72.5759 21.0066 73.4535 21.718C74.3728 22.3875 75.125 23.0362 75.7101 23.6638C76.7548 24.7937 77.4652 26.3211 77.8413 28.246C78.2592 30.129 78.3428 32.0749 78.0921 34.0835C77.8413 36.0502 77.2563 37.9124 76.3369 39.6699C75.4176 41.4274 74.143 42.7246 72.5132 43.5616C71.3431 44.1474 70.1939 44.6077 69.0656 44.9425C67.9373 45.2772 66.8508 45.5283 65.8061 45.6957C64.7613 45.8631 63.7793 45.9468 62.8599 45.9468C61.9406 45.9468 61.1466 45.9258 60.478 45.884C59.2243 45.8003 57.9079 45.3609 56.5289 44.5659C55.1916 43.7708 53.9171 42.7874 52.7052 41.6157C51.5351 40.444 50.5322 39.1677 49.6964 37.7868C48.8606 36.3641 48.3591 35.025 48.192 33.7696C47.9412 32.0539 47.8994 30.2546 48.0666 28.3715C48.2338 26.4884 48.8397 24.7518 49.8844 23.1617C50.9709 21.5715 52.6007 20.2534 54.7738 19.2073C56.9886 18.1611 59.9765 17.638 63.7375 17.638ZM61.669 41.9923C62.1286 42.076 62.7555 41.9714 63.5495 41.6785C64.3435 41.3437 65.1166 40.8206 65.8688 40.1093C66.6628 39.3979 67.3523 38.4982 67.9373 37.4102C68.5642 36.2804 68.9403 34.9204 69.0656 33.3302C69.191 31.7819 69.191 30.3592 69.0656 29.062C68.982 27.7647 68.794 26.6349 68.5015 25.6724C68.2089 24.6681 67.8746 23.8521 67.4985 23.2245C67.1224 22.5968 66.7254 22.1574 66.3075 21.9063C65.5971 21.5297 64.7405 21.2368 63.7375 21.0275C62.7346 20.7765 61.8779 20.8183 61.1675 21.1531C60.8332 21.3205 60.4153 21.6762 59.9138 22.2202C59.4123 22.7642 58.9109 23.4546 58.4094 24.2915C57.9079 25.0866 57.4483 26.0072 57.0304 27.0534C56.6543 28.0995 56.3826 29.1875 56.2155 30.3173C56.0483 31.4472 56.0065 32.6607 56.0901 33.9579C56.2155 35.2551 56.4871 36.4896 56.905 37.6613C57.3229 38.7911 57.9079 39.7745 58.6601 40.6114C59.4541 41.4065 60.4571 41.8668 61.669 41.9923Z" fill="#6358DC"/>
<path d="M116.141 23.4755C115.64 23.3918 115.013 23.3291 114.261 23.2872C113.55 23.2454 112.861 23.2245 112.192 23.2245C111.44 23.2245 110.646 23.2454 109.81 23.2872C108.932 23.3291 108.055 23.3709 107.177 23.4128C106.425 23.4546 105.568 23.5174 104.607 23.6011C103.688 23.6429 102.789 23.7057 101.912 23.7894C102.246 23.622 102.539 23.3918 102.789 23.0989C103.082 22.806 103.333 22.5131 103.542 22.2202C103.751 21.8854 103.939 21.5297 104.106 21.1531C104.315 20.5254 104.294 19.7722 104.043 18.8934C103.792 17.9728 103.333 17.1359 102.664 16.3827C102.037 15.6294 101.222 15.0436 100.219 14.6251C99.2582 14.1648 98.1926 14.0602 97.0225 14.3113C95.7689 14.6042 94.6405 15.0436 93.6376 15.6294C92.6765 16.2153 91.8616 17.0313 91.1929 18.0774C90.5661 19.0817 90.1064 20.3371 89.8139 21.8435C89.5632 23.3081 89.5005 25.0657 89.6259 27.1161C89.793 29.6687 90.2109 31.6982 90.8795 33.2047C91.5482 34.7111 92.363 35.841 93.3242 36.5942C94.2853 37.3474 95.3301 37.8077 96.4584 37.9751C97.6285 38.1007 98.7777 38.1007 99.906 37.9751C100.7 37.8077 101.431 37.4521 102.1 36.9081C102.643 36.4478 103.145 35.7782 103.604 34.8995C104.064 34.0207 104.273 32.8072 104.231 31.2589L111.879 30.945C111.001 33.4139 109.935 35.3807 108.682 36.8453C107.428 38.268 106.216 39.377 105.046 40.172C103.667 41.0926 102.288 41.7203 100.909 42.0551C99.1956 42.348 97.6703 42.4736 96.333 42.4317C94.9958 42.348 93.7839 42.1388 92.6974 41.804C91.6108 41.4693 90.6079 41.0508 89.6885 40.5486C88.7692 40.0465 87.8916 39.5025 87.0558 38.9167C86.5126 38.54 85.9066 37.9124 85.238 37.0336C84.5694 36.1548 83.9425 35.1087 83.3575 33.8952C82.7724 32.6398 82.2919 31.2589 81.9158 29.7524C81.5397 28.246 81.3934 26.6977 81.477 25.1075C81.5606 23.4755 81.9367 21.8435 82.6053 20.2116C83.2739 18.5796 84.3395 17.0103 85.8022 15.5039C88.017 13.2442 90.3781 11.7796 92.8854 11.1101C95.4345 10.3987 97.8374 10.2104 100.094 10.5452C102.351 10.8381 104.357 11.4867 106.112 12.491C107.867 13.4953 109.1 14.5833 109.81 15.755C110.52 16.9267 111.043 17.8263 111.377 18.454C111.753 19.0399 112.025 19.5002 112.192 19.8349C112.401 20.1279 112.568 20.358 112.693 20.5254C112.861 20.6509 113.09 20.8392 113.383 21.0903C113.592 21.2995 113.843 21.5297 114.135 21.7808C114.386 21.99 114.678 22.2411 115.013 22.534C115.347 22.8269 115.723 23.1408 116.141 23.4755Z" fill="#6358DC"/>
<path d="M115.201 17.7008L126.735 17.8263C126.066 20.3789 125.564 22.5549 125.23 24.3543C124.938 26.1537 124.75 27.6601 124.666 28.8736C124.499 30.2546 124.457 31.4262 124.541 32.3887C124.666 33.2675 124.875 34.209 125.167 35.2133C125.418 36.0502 125.794 37.0127 126.296 38.1007C126.797 39.1887 127.466 40.2766 128.302 41.3646C127.8 41.1973 127.257 41.0717 126.672 40.988C126.087 40.9043 125.544 40.8416 125.042 40.7997C124.457 40.7579 123.872 40.7579 123.287 40.7997C122.702 40.8416 122.054 40.9043 121.344 40.988C120.759 41.0717 120.048 41.1763 119.213 41.3019C118.377 41.4274 117.499 41.5948 116.58 41.804C117.207 39.921 117.687 38.289 118.022 36.9081C118.398 35.5271 118.669 34.3764 118.836 33.4558C119.004 32.3678 119.108 31.489 119.15 30.8195C119.15 29.9826 119.15 29.041 119.15 27.9949C119.15 26.9069 119.15 25.8607 119.15 24.8564C119.15 23.8521 119.129 22.9734 119.087 22.2202C119.045 21.4251 118.962 20.9229 118.836 20.7137L118.21 20.086C117.959 19.8768 117.583 19.5839 117.081 19.2073C116.622 18.7888 115.995 18.2866 115.201 17.7008ZM119.651 8.03441C120.529 7.5741 121.406 7.44857 122.284 7.65779C123.203 7.86702 123.914 8.26456 124.415 8.8504C124.917 9.43624 125.084 10.1267 124.917 10.9218C124.791 11.7168 124.123 12.491 122.911 13.2442C121.699 13.9556 120.633 14.2067 119.714 13.9974C118.795 13.7882 118.147 13.3488 117.771 12.6793C117.395 12.0098 117.332 11.2356 117.583 10.3569C117.833 9.43624 118.523 8.6621 119.651 8.03441Z" fill="#6358DC"/>
<path d="M130.872 2.44798C133.379 2.65721 135.573 2.78275 137.453 2.8246C139.376 2.86644 141.006 2.88737 142.343 2.88737C143.889 2.88737 145.226 2.84552 146.355 2.76183C147.525 2.63629 149.05 2.46891 150.93 2.25968C152.518 2.05045 154.566 1.77845 157.073 1.44368C159.581 1.06707 162.631 0.585842 166.225 0C165.766 0.71138 165.369 1.46461 165.034 2.25968C164.742 3.0129 164.491 3.70336 164.282 4.33105C164.073 5.08427 163.885 5.81658 163.718 6.52796C163.593 7.32303 163.446 8.30641 163.279 9.47809C163.112 10.4824 162.903 11.7587 162.652 13.307C162.443 14.8134 162.172 16.6128 161.837 18.7051C160.584 15.4411 159.309 12.9304 158.014 11.1728C156.76 9.41532 155.59 8.1181 154.503 7.28118C153.25 6.31873 152.059 5.77473 150.93 5.64919C149.301 5.64919 147.963 5.96304 146.919 6.59072C145.874 7.21841 145.017 8.03441 144.349 9.03871C143.722 10.0012 143.241 11.0682 142.907 12.2399C142.573 13.3698 142.343 14.4787 142.217 15.5667C142.092 16.6128 142.008 17.5543 141.967 18.3913C141.925 19.1863 141.883 19.7303 141.841 20.0232C143.304 19.9396 144.537 19.8349 145.54 19.7094C146.543 19.5839 147.337 19.4583 147.922 19.3328C148.632 19.1654 149.196 18.998 149.614 18.8306C150.241 18.4959 150.868 18.0983 151.495 17.638C152.038 17.2196 152.602 16.7174 153.187 16.1316C153.814 15.5457 154.357 14.8344 154.817 13.9974C154.566 15.5039 154.336 16.7593 154.127 17.7636C153.96 18.7679 153.814 19.5629 153.689 20.1488C153.521 20.8602 153.417 21.4042 153.375 21.7808C153.292 22.1574 153.187 22.6805 153.062 23.35C152.936 23.9358 152.79 24.6891 152.623 25.6097C152.456 26.5303 152.268 27.681 152.059 29.062C151.557 28.1832 151.035 27.4718 150.492 26.9278C149.948 26.342 149.447 25.8817 148.987 25.5469C148.444 25.1703 147.922 24.8774 147.42 24.6681C146.877 24.5008 146.292 24.3334 145.665 24.166C145.122 24.0405 144.474 23.9149 143.722 23.7894C143.011 23.622 142.238 23.4755 141.403 23.35C141.486 25.6097 141.611 27.5555 141.779 29.1875C141.946 30.7776 142.092 32.1167 142.217 33.2047C142.385 34.4601 142.552 35.5062 142.719 36.3431C142.928 37.1801 143.262 38.0797 143.722 39.0422C144.098 39.8791 144.62 40.8416 145.289 41.9296C145.999 42.9757 146.898 44.1055 147.984 45.3191C147.149 45.1098 146.271 44.9634 145.352 44.8797C144.432 44.796 143.617 44.7332 142.907 44.6914C142.029 44.6495 141.194 44.6495 140.4 44.6914C139.564 44.7332 138.644 44.8169 137.642 44.9425C136.806 45.0262 135.845 45.1517 134.758 45.3191C133.672 45.4865 132.522 45.6748 131.31 45.884C132.021 45.1726 132.606 44.4612 133.066 43.7499C133.525 43.0385 133.86 42.4108 134.069 41.8668C134.319 41.2391 134.486 40.6323 134.57 40.0465C134.612 39.5443 134.633 38.4564 134.633 36.7825C134.633 35.0668 134.612 33.0792 134.57 30.8195C134.528 28.518 134.466 26.0909 134.382 23.5383C134.298 20.9857 134.215 18.6005 134.131 16.3827C134.048 14.123 133.943 12.1981 133.818 10.6079C133.734 9.01779 133.63 8.05533 133.504 7.72056C133.337 7.3021 133.149 6.82088 132.94 6.27688C132.606 5.39812 131.916 4.12182 130.872 2.44798Z" fill="#6358DC"/>
<path d="M160.458 13.6836C161.294 13.8091 162.046 13.9138 162.715 13.9974C163.342 14.0393 163.906 14.0811 164.407 14.123C164.951 14.1648 165.473 14.1858 165.975 14.1858C166.434 14.1858 167.019 14.1648 167.73 14.123C168.315 14.0811 169.067 14.0393 169.986 13.9974C170.947 13.9138 172.076 13.8091 173.371 13.6836C173.288 13.851 173.12 14.3741 172.87 15.2528C172.619 16.0897 172.368 17.1359 172.118 18.3913C171.867 19.6048 171.637 20.9648 171.428 22.4712C171.261 23.9358 171.177 25.4004 171.177 26.865C171.219 28.2878 171.407 29.6478 171.741 30.945C172.076 32.2004 172.619 33.2256 173.371 34.0207C174.959 35.6527 176.359 36.6361 177.571 36.9708C178.825 37.3056 179.911 37.2637 180.831 36.8453C181.75 36.4268 182.502 35.7991 183.087 34.9622C183.672 34.1253 184.09 33.3512 184.341 32.6398C184.968 30.7149 185.344 28.6853 185.469 26.5512C185.553 24.71 185.406 22.6595 185.03 20.3999C184.654 18.1402 183.756 15.8387 182.335 13.4953C183.421 13.579 184.362 13.6418 185.156 13.6836C185.95 13.7254 186.639 13.7673 187.224 13.8091C187.893 13.851 188.478 13.8928 188.979 13.9347C189.439 13.9765 189.982 13.9765 190.609 13.9347C191.152 13.9347 191.8 13.9138 192.552 13.8719C193.346 13.7882 194.224 13.7045 195.185 13.6208C195.352 17.7217 195.499 21.3832 195.624 24.6054C195.749 27.7857 195.833 30.6103 195.875 33.0792C195.958 35.5062 196 37.6194 196 39.4188C196 41.1763 196 42.6619 196 43.8754C195.958 46.7628 195.833 48.6667 195.624 49.5874C195.29 50.8846 194.684 52.1818 193.806 53.479C192.97 54.7762 191.905 55.927 190.609 56.9313C189.314 57.9775 187.809 58.7725 186.096 59.3165C184.424 59.9024 182.586 60.1116 180.58 59.9442C178.616 59.7768 177.049 59.5048 175.879 59.1282C174.75 58.7934 173.852 58.3959 173.183 57.9356C172.556 57.4753 172.097 56.9941 171.804 56.4919C171.553 55.9898 171.365 55.4667 171.24 54.9227C171.115 54.4206 170.989 53.9393 170.864 53.479C170.738 53.0187 170.488 52.6212 170.112 52.2864C169.652 51.9098 169.171 51.5332 168.67 51.1566C168.21 50.8218 167.709 50.487 167.166 50.1523C166.664 49.8175 166.163 49.5455 165.661 49.3363L179.013 48.5831C178.637 49.0852 178.365 49.5455 178.198 49.964C178.031 50.3824 177.926 50.7381 177.884 51.031C177.843 51.4076 177.864 51.7215 177.947 51.9726C178.114 52.4747 178.407 53.0187 178.825 53.6046C179.284 54.2322 179.869 54.7135 180.58 55.0482C181.29 55.4249 182.126 55.5504 183.087 55.4249C184.09 55.2993 185.218 54.7762 186.472 53.8556C187.517 53.0606 188.394 51.7843 189.105 50.0267C189.69 48.5203 190.15 46.4071 190.484 43.6871C190.818 40.9671 190.755 37.3893 190.296 32.9536C189.544 35.5481 188.52 37.5357 187.224 38.9167C185.929 40.2976 184.633 41.3019 183.338 41.9296C181.833 42.6828 180.266 43.0803 178.637 43.1222C176.464 43.0385 174.604 42.7665 173.058 42.3062C171.512 41.804 170.237 41.1345 169.234 40.2976C168.231 39.4607 167.437 38.4773 166.852 37.3474C166.309 36.1758 165.912 34.8785 165.661 33.4558C165.41 32.033 165.285 30.6103 165.285 29.1875C165.285 27.7229 165.285 26.3629 165.285 25.1075C165.327 23.8521 165.348 22.7223 165.348 21.718C165.348 20.6719 165.243 19.8349 165.034 19.2073C164.784 18.5796 164.449 17.9519 164.031 17.3242C163.697 16.7802 163.237 16.1944 162.652 15.5667C162.025 14.8971 161.294 14.2694 160.458 13.6836Z" fill="#6358DC"/>
</g>
<defs>
<filter id="filter0_d_137_4461" x="0" y="0" width="200" height="68" filterUnits="userSpaceOnUse" color-interpolation-filters="sRGB">
<feFlood flood-opacity="0" result="BackgroundImageFix"/>
<feColorMatrix in="SourceAlpha" type="matrix" values="0 0 0 0 0 0 0 0 0 0 0 0 0 0 0 0 0 0 127 0" result="hardAlpha"/>
<feOffset dy="4"/>
<feGaussianBlur stdDeviation="2"/>
<feComposite in2="hardAlpha" operator="out"/>
<feColorMatrix type="matrix" values="0 0 0 0 0 0 0 0 0 0 0 0 0 0 0 0 0 0 0.25 0"/>
<feBlend mode="normal" in2="BackgroundImageFix" result="effect1_dropShadow_137_4461"/>
<feBlend mode="normal" in="SourceGraphic" in2="effect1_dropShadow_137_4461" result="shape"/>
</filter>
</defs>
</svg>
